<?xml version="1.0" encoding="utf-8"?>
<!-- Generated by IcoMoon.io -->
<!DOCTYPE svg PUBLIC "-//W3C//DTD SVG 1.1//EN" "http://www.w3.org/Graphics/SVG/1.1/DTD/svg11.dtd">
<svg version="1.1" xmlns="http://www.w3.org/2000/svg" xmlns:xlink="http://www.w3.org/1999/xlink" width="26" height="28" viewBox="0 0 26 28">
<path d="M22 14.531v4.969q0 1.859-1.32 3.18t-3.18 1.32h-13q-1.859 0-3.18-1.32t-1.32-3.18v-13q0-1.859 1.32-3.18t3.18-1.32h13q0.984 0 1.828 0.391 0.234 0.109 0.281 0.359 0.047 0.266-0.141 0.453l-0.766 0.766q-0.156 0.156-0.359 0.156-0.047 0-0.141-0.031-0.359-0.094-0.703-0.094h-13q-1.031 0-1.766 0.734t-0.734 1.766v13q0 1.031 0.734 1.766t1.766 0.734h13q1.031 0 1.766-0.734t0.734-1.766v-3.969q0-0.203 0.141-0.344l1-1q0.156-0.156 0.359-0.156 0.094 0 0.187 0.047 0.313 0.125 0.313 0.453zM25.609 6.891l-12.719 12.719q-0.375 0.375-0.891 0.375t-0.891-0.375l-6.719-6.719q-0.375-0.375-0.375-0.891t0.375-0.891l1.719-1.719q0.375-0.375 0.891-0.375t0.891 0.375l4.109 4.109 10.109-10.109q0.375-0.375 0.891-0.375t0.891 0.375l1.719 1.719q0.375 0.375 0.375 0.891t-0.375 0.891z"></path>
</svg>
