<svg xmlns="http://www.w3.org/2000/svg">
<symbol id="checkedBox" width="26" height="28" viewBox="0 0 26 28">
  <path d="M22 14.531v4.969q0 1.859-1.32 3.18t-3.18 1.32h-13q-1.859 0-3.18-1.32t-1.32-3.18v-13q0-1.859 1.32-3.18t3.18-1.32h13q0.984 0 1.828 0.391 0.234 0.109 0.281 0.359 0.047 0.266-0.141 0.453l-0.766 0.766q-0.156 0.156-0.359 0.156-0.047 0-0.141-0.031-0.359-0.094-0.703-0.094h-13q-1.031 0-1.766 0.734t-0.734 1.766v13q0 1.031 0.734 1.766t1.766 0.734h13q1.031 0 1.766-0.734t0.734-1.766v-3.969q0-0.203 0.141-0.344l1-1q0.156-0.156 0.359-0.156 0.094 0 0.187 0.047 0.313 0.125 0.313 0.453zM25.609 6.891l-12.719 12.719q-0.375 0.375-0.891 0.375t-0.891-0.375l-6.719-6.719q-0.375-0.375-0.375-0.891t0.375-0.891l1.719-1.719q0.375-0.375 0.891-0.375t0.891 0.375l4.109 4.109 10.109-10.109q0.375-0.375 0.891-0.375t0.891 0.375l1.719 1.719q0.375 0.375 0.375 0.891t-0.375 0.891z"></path>
</symbol>
<symbol id="uncheckedBox" width="22" height="28" viewBox="0 0 22 28">
  <path d="M17.5 4h-13q-1.031 0-1.766 0.734t-0.734 1.766v13q0 1.031 0.734 1.766t1.766 0.734h13q1.031 0 1.766-0.734t0.734-1.766v-13q0-1.031-0.734-1.766t-1.766-0.734zM22 6.5v13q0 1.859-1.32 3.18t-3.18 1.32h-13q-1.859 0-3.18-1.32t-1.32-3.18v-13q0-1.859 1.32-3.18t3.18-1.32h13q1.859 0 3.18 1.32t1.32 3.18z"></path>
</symbol>
<symbol id="cog" width="1792" height="1792" viewBox="0 0 1792 1792">
  <path d="M1152 896q0-106-75-181t-181-75-181 75-75 181 75 181 181 75 181-75 75-181zm512-109v222q0 12-8 23t-20 13l-185 28q-19 54-39 91 35 50 107 138 10 12 10 25t-9 23q-27 37-99 108t-94 71q-12 0-26-9l-138-108q-44 23-91 38-16 136-29 186-7 28-36 28h-222q-14 0-24.5-8.5t-11.5-21.5l-28-184q-49-16-90-37l-141 107q-10 9-25 9-14 0-25-11-126-114-165-168-7-10-7-23 0-12 8-23 15-21 51-66.5t54-70.5q-27-50-41-99l-183-27q-13-2-21-12.5t-8-23.5v-222q0-12 8-23t19-13l186-28q14-46 39-92-40-57-107-138-10-12-10-24 0-10 9-23 26-36 98.5-107.5t94.5-71.5q13 0 26 10l138 107q44-23 91-38 16-136 29-186 7-28 36-28h222q14 0 24.5 8.5t11.5 21.5l28 184q49 16 90 37l142-107q9-9 24-9 13 0 25 10 129 119 165 170 7 8 7 22 0 12-8 23-15 21-51 66.5t-54 70.5q26 50 41 98l183 28q13 2 21 12.5t8 23.5z"/>
</symbol>
<symbol id="signOut" width="1792" height="1792" viewBox="0 0 1792 1792">
  <path d="M704 1440q0 4 1 20t.5 26.5-3 23.5-10 19.5-20.5 6.5h-320q-119 0-203.5-84.5t-84.5-203.5v-704q0-119 84.5-203.5t203.5-84.5h320q13 0 22.5 9.5t9.5 22.5q0 4 1 20t.5 26.5-3 23.5-10 19.5-20.5 6.5h-320q-66 0-113 47t-47 113v704q0 66 47 113t113 47h312l11.5 1 11.5 3 8 5.5 7 9 2 13.5zm928-544q0 26-19 45l-544 544q-19 19-45 19t-45-19-19-45v-288h-448q-26 0-45-19t-19-45v-384q0-26 19-45t45-19h448v-288q0-26 19-45t45-19 45 19l544 544q19 19 19 45z"/>
</symbol>
<symbol id="warningTriangle" width="1792" height="1792" viewBox="0 0 1792 1792">
  <path d="M1024 1375v-190q0-14-9.5-23.5t-22.5-9.5h-192q-13 0-22.5 9.5t-9.5 23.5v190q0 14 9.5 23.5t22.5 9.5h192q13 0 22.5-9.5t9.5-23.5zm-2-374l18-459q0-12-10-19-13-11-24-11h-220q-11 0-24 11-10 7-10 21l17 457q0 10 10 16.5t24 6.5h185q14 0 23.5-6.5t10.5-16.5zm-14-934l768 1408q35 63-2 126-17 29-46.5 46t-63.5 17h-1536q-34 0-63.5-17t-46.5-46q-37-63-2-126l768-1408q17-31 47-49t65-18 65 18 47 49z"/>
</symbol>
</svg>
